<svg width="104" height="104" viewBox="0 0 104 104" fill="none" xmlns="http://www.w3.org/2000/svg">
<path fill-rule="evenodd" clip-rule="evenodd" d="M31.3519 82.5084C28.4096 82.5084 26.0176 84.9004 26.0176 87.8428C26.0176 90.7894 28.4096 93.1814 31.3519 93.1814C34.2942 93.1814 36.6906 90.7894 36.6906 87.8428C36.6906 84.9004 34.2942 82.5084 31.3519 82.5084Z" fill="black"/>
<path fill-rule="evenodd" clip-rule="evenodd" d="M79.1219 82.5084C76.1795 82.5084 73.7832 84.9004 73.7832 87.8428C73.7832 90.7894 76.1795 93.1814 79.1219 93.1814C82.0642 93.1814 84.4562 90.7894 84.4562 87.8428C84.4562 84.9004 82.0642 82.5084 79.1219 82.5084Z" fill="black"/>
<path fill-rule="evenodd" clip-rule="evenodd" d="M66.3355 54.0987C67.6052 55.3684 67.6052 57.4267 66.3355 58.6964C65.7029 59.329 64.8709 59.6454 64.0389 59.6454C63.2069 59.6454 62.3749 59.329 61.7379 58.6964L57.6905 54.6447L53.6562 58.6834C53.0235 59.316 52.1915 59.6324 51.3595 59.6324C50.5275 59.6324 49.6955 59.316 49.0629 58.6834C47.7932 57.4137 47.7932 55.3554 49.0629 54.0857L53.0972 50.0514L49.0629 46.0127C47.7932 44.743 47.7932 42.689 49.0629 41.4194C50.3325 40.1497 52.3865 40.1497 53.6562 41.4194L57.6905 45.4537L61.7379 41.4063C63.0075 40.1367 65.0659 40.1367 66.3355 41.4063C67.6052 42.676 67.6052 44.7344 66.3355 46.004L62.2882 50.0514L66.3355 54.0987ZM92.4829 30.6294C91.0572 28.7227 88.9772 27.4834 86.6112 27.141C86.3079 27.102 86.1172 27.0717 25.9922 27.05L25.0085 15.3197C24.8872 13.842 23.7822 12.6417 22.3262 12.386L13.5555 10.8694C11.7615 10.553 10.1019 11.749 9.79853 13.517C9.49087 15.285 10.6782 16.9707 12.4462 17.274L18.7425 18.3617L22.5905 64.23C23.0542 69.8157 27.7949 74.1837 33.3849 74.1837H79.4309C84.7869 74.1837 89.3932 70.184 90.1559 64.88L94.1555 37.2334C94.4979 34.8804 93.9042 32.536 92.4829 30.6294Z" fill="black"/>
</svg>
