<svg width="24" height="24" viewBox="0 0 24 24" fill="none" xmlns="http://www.w3.org/2000/svg">
<path fill-rule="evenodd" clip-rule="evenodd" d="M21.3405 7.06627C21.0125 6.62727 20.5315 6.34127 19.9875 6.26227C19.9175 6.25327 19.8745 6.24627 5.99846 6.24127L5.77146 3.53427C5.74246 3.19327 5.48746 2.91627 5.15246 2.85727L3.12746 2.50727C2.72646 2.44027 2.33146 2.71027 2.26046 3.11827C2.19046 3.52627 2.46346 3.91527 2.87146 3.98527L4.32446 4.23627L5.21346 14.8213C5.31946 16.1103 6.41346 17.1183 7.70346 17.1183H18.3295C19.5675 17.1183 20.6305 16.1953 20.8045 14.9713L21.7285 8.59027C21.8075 8.04727 21.6695 7.50527 21.3405 7.06627Z" fill="black"/>
<path fill-rule="evenodd" clip-rule="evenodd" d="M7.28593 19.0393C6.60693 19.0393 6.05493 19.5913 6.05493 20.2703C6.05493 20.9503 6.60693 21.5023 7.28593 21.5023C7.96493 21.5023 8.51693 20.9503 8.51693 20.2703C8.51693 19.5913 7.96493 19.0393 7.28593 19.0393Z" fill="black"/>
<path fill-rule="evenodd" clip-rule="evenodd" d="M18.3091 19.0393C17.6301 19.0393 17.0781 19.5913 17.0781 20.2703C17.0781 20.9503 17.6301 21.5023 18.3091 21.5023C18.9881 21.5023 19.5401 20.9503 19.5401 20.2703C19.5401 19.5913 18.9881 19.0393 18.3091 19.0393Z" fill="black"/>
</svg>
