<svg width="24" height="24" viewBox="0 0 24 24" fill="none" xmlns="http://www.w3.org/2000/svg">
<path fill-rule="evenodd" clip-rule="evenodd" d="M16.2504 17.7508H8.05039C7.75039 17.7508 7.55039 17.5508 7.55039 17.2508C7.55039 15.5508 8.95039 13.7508 12.1504 13.7508C15.3504 13.7508 16.7504 15.5508 16.7504 17.2508C16.7504 17.5508 16.5504 17.7508 16.2504 17.7508ZM12.1504 6.25078C13.8504 6.25078 15.2504 7.65078 15.2504 9.35078C15.2504 11.0508 13.8504 12.4508 12.1504 12.4508C10.4504 12.4508 9.05039 11.0508 9.05039 9.35078C9.05039 7.65078 10.4504 6.25078 12.1504 6.25078ZM16.3504 2.55078H7.95039C4.85039 2.55078 2.75039 4.75078 2.65039 8.05078V15.9508C2.65039 19.1508 4.85039 21.4508 7.95039 21.4508H16.3504C19.5504 21.4508 21.6504 19.2508 21.6504 15.9508V8.05078C21.6504 4.85078 19.4504 2.55078 16.3504 2.55078Z" fill="black"/>
</svg>
