<svg width="430" height="342" viewBox="0 0 430 342" fill="none" xmlns="http://www.w3.org/2000/svg">
<path fill-rule="evenodd" clip-rule="evenodd" d="M335.801 2.44625C377.749 -1.16362 404.636 -1.9961 428.199 8.58095L428.66 10.6357L429.011 12.4617L429.322 14.3886L429.571 16.3008L429.788 18.5057L429.917 20.7577L430 40.5134L430 71.7157C406.602 64.4827 379.412 63.3399 341.325 66.6176C303.74 69.852 263.361 77.9538 226.111 88.933C188.688 99.9633 155.743 113.509 132.587 127.009C122.842 132.69 115.637 137.9 110.727 142.324C112.382 142.545 114.218 142.737 116.246 142.892C138.525 144.6 170.162 141.15 206.873 137.147L207.26 137.105C241.747 133.345 281.115 129.061 311.933 131.932C327.208 133.355 344.681 136.828 359.103 146.261C375.75 157.151 386.032 174.578 386.075 196.339C386.119 218.777 374.994 237.221 361.918 250.979C348.806 264.775 331.423 276.422 312.72 286.205C275.172 305.846 226.267 321.079 177.363 330.596C128.414 340.121 77.0525 344.389 34.205 340.657C12.8454 338.797 2.70013 335.505 -3.99963 331.15C-3.99959 319.557 -4.00037 329.35 -3.99963 317.756V276.492C-3.99961 268.806 -3.99964 271.382 -4 267.518C5.53132 271.421 22.1311 274.953 39.7944 276.492C74.9925 279.557 120.091 276.124 165.058 267.373C210.071 258.614 252.539 244.995 282.863 229.134C298.096 221.166 308.774 213.399 315.227 206.609C318.546 203.117 320.153 200.544 320.932 198.863C318.17 197.907 313.445 196.761 305.957 196.063C283.014 193.925 250.865 197.141 214.243 201.134C212.659 201.307 211.064 201.481 209.461 201.657C176.428 205.271 139.714 209.288 111.324 207.113C96.7321 205.994 79.3204 202.994 65.106 193.655C57.4505 188.625 50.37 181.519 45.6824 171.878C41.0045 162.257 39.6634 152.073 40.4343 142.339C41.8772 124.118 52.3136 109.733 62.1065 99.7421C72.4035 89.2366 85.7215 79.7754 100.143 71.3672C129.131 54.4673 167.268 39.1283 207.899 27.1525C248.703 15.1255 293.351 6.09939 335.801 2.44625Z" fill="url(#paint0_linear_349_14)"/>
<defs>
<linearGradient id="paint0_linear_349_14" x1="392" y1="34" x2="77.0172" y2="300.02" gradientUnits="userSpaceOnUse">
<stop stop-color="#EE00FF"/>
<stop offset="1" stop-color="#9900FF"/>
</linearGradient>
</defs>
</svg>
